<svg width="48" height="48" viewBox="0 0 48 48" fill="none" xmlns="http://www.w3.org/2000/svg">
<rect width="48" height="48" rx="24" fill="#EBFFF3"/>
<path d="M18 20H22" stroke="#1E854A" stroke-width="1.5" stroke-linecap="round" stroke-linejoin="round"/>
<path d="M32.833 21H30.231C28.446 21 27 22.343 27 24C27 25.657 28.447 27 30.23 27H32.833C32.917 27 32.958 27 32.993 26.998C33.533 26.965 33.963 26.566 33.998 26.065C34 26.033 34 25.994 34 25.917V22.083C34 22.006 34 21.967 33.998 21.935C33.962 21.434 33.533 21.035 32.993 21.002C32.959 21 32.917 21 32.833 21Z" stroke="#1E854A" stroke-width="1.5"/>
<path d="M32.965 21C32.887 19.128 32.637 17.98 31.828 17.172C30.657 16 28.771 16 25 16H22C18.229 16 16.343 16 15.172 17.172C14 18.343 14 20.229 14 24C14 27.771 14 29.657 15.172 30.828C16.343 32 18.229 32 22 32H25C28.771 32 30.657 32 31.828 30.828C32.637 30.02 32.888 28.872 32.965 27" stroke="#1E854A" stroke-width="1.5"/>
<path d="M29.9902 24H30.0002" stroke="#1E854A" stroke-width="2" stroke-linecap="round" stroke-linejoin="round"/>
</svg>
