<svg width="49" height="48" viewBox="0 0 49 48" fill="none" xmlns="http://www.w3.org/2000/svg">
<rect x="0.5" width="48" height="48" rx="24" fill="#FFF0F0"/>
<path d="M19.5 23H18.5C15.19 23 14.5 23.69 14.5 27V30C14.5 33.31 15.19 34 18.5 34H30.5C33.81 34 34.5 33.31 34.5 30V27C34.5 24.789 34.192 23.747 33 23.299M24.5 30H30.5" stroke="#E52929" stroke-width="1.5" stroke-linecap="round" stroke-linejoin="round"/>
<path d="M29.7438 15.1335C30.1908 14.6485 30.4138 14.4055 30.6518 14.2635C30.9324 14.0958 31.2523 14.0049 31.5792 14.0002C31.9061 13.9955 32.2285 14.077 32.5138 14.2365C32.7558 14.3705 32.9858 14.6065 33.4468 15.0775C33.9068 15.5495 34.1378 15.7845 34.2698 16.0315C34.4257 16.3258 34.5049 16.6546 34.5 16.9876C34.4951 17.3206 34.4063 17.6469 34.2418 17.9365C34.1038 18.1795 33.8668 18.4085 33.3918 18.8665L27.7498 24.3085C26.2558 25.7495 25.3298 26.0485 23.2598 25.9945C22.8828 25.9845 22.6948 25.9795 22.5858 25.8555C22.4768 25.7315 22.4918 25.5395 22.5218 25.1555C22.6588 23.3885 22.9708 22.4825 24.1738 21.1775L29.7438 15.1335Z" stroke="#E52929" stroke-width="1.5" stroke-linecap="round" stroke-linejoin="round"/>
</svg>
