<svg width="48" height="48" viewBox="0 0 48 48" fill="none" xmlns="http://www.w3.org/2000/svg">
<rect width="48" height="48" rx="24" fill="#FFF0F3"/>
<path d="M25.0003 24H29.0003M21.0003 28H29.0003M34.0003 20.879C33.9333 19.337 33.7463 18.333 33.2203 17.539C32.9212 17.0866 32.546 16.6894 32.1113 16.365C30.9453 15.5 29.3003 15.5 26.0083 15.5H21.9933C18.7023 15.5 17.0563 15.5 15.8903 16.365C15.4583 16.685 15.0833 17.082 14.7803 17.539C14.2553 18.333 14.0683 19.337 14.0003 20.879C13.9903 21.142 14.2163 21.344 14.4653 21.344C15.8513 21.344 16.9753 22.533 16.9753 24C16.9753 25.467 15.8513 26.656 14.4653 26.656C14.2163 26.656 13.9893 26.858 14.0013 27.122C14.0683 28.663 14.2553 29.667 14.7813 30.462C15.0806 30.914 15.4558 31.3109 15.8903 31.635C17.0563 32.5 18.7023 32.5 21.9933 32.5H26.0083C29.2993 32.5 30.9453 32.5 32.1113 31.635C32.5433 31.315 32.9183 30.918 33.2213 30.461C33.7463 29.667 33.9333 28.663 34.0003 27.121V20.879Z" stroke="#FF2D55" stroke-width="1.5" stroke-linecap="round" stroke-linejoin="round"/>
</svg>
