<svg width="49" height="48" viewBox="0 0 49 48" fill="none" xmlns="http://www.w3.org/2000/svg">
<rect x="0.5" width="48" height="48" rx="24" fill="#EEFAFF"/>
<path d="M24.5 31.5C23.168 32.122 21.417 32.5 19.5 32.5C18.434 32.5 17.42 32.383 16.5 32.173C14.918 31.81 14.5 30.88 14.5 29.386V18.614C14.5 17.629 15.54 16.953 16.5 17.173C17.42 17.383 18.434 17.5 19.5 17.5C21.417 17.5 23.168 17.122 24.5 16.5C25.832 15.878 27.583 15.5 29.5 15.5C30.566 15.5 31.58 15.617 32.5 15.827C34.082 16.19 34.5 17.12 34.5 18.614V29.386C34.5 30.371 33.46 31.047 32.5 30.827C31.58 30.617 30.566 30.5 29.5 30.5C27.583 30.5 25.832 30.878 24.5 31.5Z" stroke="#32ADE6" stroke-width="1.5" stroke-linecap="round" stroke-linejoin="round"/>
<path d="M18 25V25.009M31 22.992V23.002M27 24C27 24.663 26.7366 25.2989 26.2678 25.7678C25.7989 26.2366 25.163 26.5 24.5 26.5C23.837 26.5 23.2011 26.2366 22.7322 25.7678C22.2634 25.2989 22 24.663 22 24C22 23.337 22.2634 22.7011 22.7322 22.2322C23.2011 21.7634 23.837 21.5 24.5 21.5C25.163 21.5 25.7989 21.7634 26.2678 22.2322C26.7366 22.7011 27 23.337 27 24Z" stroke="#32ADE6" stroke-width="1.5" stroke-linecap="round" stroke-linejoin="round"/>
</svg>
