<svg width="48" height="48" viewBox="0 0 48 48" fill="none" xmlns="http://www.w3.org/2000/svg">
<rect width="48" height="48" rx="24" fill="#FFF5E9"/>
<path d="M33.41 23.41L24.58 14.58C24.21 14.21 23.7 14 23.17 14H16C14.9 14 14 14.9 14 16V23.17C14 23.7 14.21 24.21 14.59 24.58L23.42 33.41C24.2 34.19 25.47 34.19 26.25 33.41L33.42 26.24C34.2 25.46 34.2 24.2 33.41 23.41ZM24.83 32L16 23.17V16H23.17L32 24.83L24.83 32Z" fill="#A2845E"/>
<path d="M18.5 20C19.3284 20 20 19.3284 20 18.5C20 17.6716 19.3284 17 18.5 17C17.6716 17 17 17.6716 17 18.5C17 19.3284 17.6716 20 18.5 20Z" fill="#A2845E"/>
</svg>
