<svg width="49" height="48" viewBox="0 0 49 48" fill="none" xmlns="http://www.w3.org/2000/svg">
<rect x="0.5" width="48" height="48" rx="24" fill="#F4F3FF"/>
<path d="M17 16.125V16.5H17.75C17.9489 16.5 18.1397 16.421 18.2803 16.2803C18.421 16.1397 18.5 15.9489 18.5 15.75V15H18.125C17.8266 15 17.5405 15.1185 17.3295 15.3295C17.1185 15.5405 17 15.8266 17 16.125ZM18.125 13.5H24.875C26.324 13.5 27.5 14.676 27.5 16.125V16.9395L31.9625 21.402C32.45 21.8895 32.8367 22.4683 33.1005 23.1053C33.3643 23.7423 33.5 24.425 33.5 25.1145V33.75C33.5 33.9489 33.421 34.1397 33.2803 34.2803C33.1397 34.421 32.9489 34.5 32.75 34.5C32.5511 34.5 32.3603 34.421 32.2197 34.2803C32.079 34.1397 32 33.9489 32 33.75V25.1145C32.0001 24.622 31.9032 24.1343 31.7148 23.6793C31.5264 23.2243 31.2502 22.8108 30.902 22.4625L27.5 19.0605V22.938L28.781 24.219C28.9218 24.3596 29.001 24.5504 29.0012 24.7495C29.0013 24.9485 28.9224 25.1394 28.7817 25.2803C28.6411 25.4211 28.4503 25.5003 28.2513 25.5004C28.0523 25.5006 27.8613 25.4216 27.7205 25.281L26.246 23.805L26.195 23.754L24.359 21.918C24.2569 21.812 24.1347 21.7275 23.9995 21.6693C23.8644 21.6111 23.719 21.5805 23.5718 21.5791C23.4247 21.5778 23.2788 21.6058 23.1426 21.6616C23.0064 21.7173 22.8827 21.7996 22.7787 21.9037C22.6747 22.0078 22.5925 22.1316 22.5369 22.2678C22.4813 22.4041 22.4534 22.55 22.4549 22.6972C22.4564 22.8443 22.4871 22.9897 22.5455 23.1248C22.6038 23.2599 22.6884 23.382 22.7945 23.484L25.031 25.719C25.1009 25.7887 25.1563 25.8714 25.1942 25.9625C25.232 26.0536 25.2515 26.1513 25.2515 26.25V27.75C25.2515 28.1476 25.4093 28.5289 25.6903 28.8101C25.9713 29.0914 26.3524 29.2496 26.75 29.25C26.9489 29.25 27.1397 29.329 27.2803 29.4697C27.421 29.6103 27.5 29.8011 27.5 30V31.875C27.5 32.5712 27.2234 33.2389 26.7312 33.7312C26.2389 34.2234 25.5712 34.5 24.875 34.5H18.125C17.4288 34.5 16.7611 34.2234 16.2688 33.7312C15.7766 33.2389 15.5 32.5712 15.5 31.875V16.125C15.5 14.676 16.676 13.5 18.125 13.5ZM24.5 33H24.875C25.1734 33 25.4595 32.8815 25.6705 32.6705C25.8815 32.4595 26 32.1734 26 31.875V31.5H25.25C25.0511 31.5 24.8603 31.579 24.7197 31.7197C24.579 31.8603 24.5 32.0511 24.5 32.25V33ZM24.815 30.042C24.4816 29.7606 24.2136 29.4099 24.0297 29.0143C23.8457 28.6187 23.7503 28.1878 23.75 27.7515V26.5605L23.4605 26.271C23.0908 26.5896 22.6489 26.8132 22.1733 26.9224C21.6976 27.0316 21.2024 27.0231 20.7308 26.8976C20.2592 26.7721 19.8252 26.5335 19.4667 26.2024C19.1082 25.8712 18.8358 25.4576 18.6733 24.9974C18.5108 24.5372 18.463 24.0443 18.5341 23.5615C18.6051 23.0787 18.793 22.6204 19.0812 22.2266C19.3694 21.8328 19.7494 21.5152 20.1882 21.3015C20.6269 21.0877 21.1112 20.9842 21.599 21C21.719 20.86 21.857 20.7315 22.013 20.6145C22.5151 20.2388 23.1357 20.0564 23.7612 20.1008C24.3868 20.1451 24.9754 20.4132 25.4195 20.856L26 21.438V18H25.25C24.6533 18 24.081 17.7629 23.659 17.341C23.2371 16.919 23 16.3467 23 15.75V15H20V15.75C20 16.3467 19.7629 16.919 19.341 17.341C18.919 17.7629 18.3467 18 17.75 18H17V30H17.75C18.3467 30 18.919 30.2371 19.341 30.659C19.7629 31.081 20 31.6533 20 32.25V33H23V32.25C22.9999 31.7287 23.1808 31.2235 23.5119 30.8208C23.8429 30.4181 24.3035 30.1428 24.815 30.042ZM25.25 16.5H26V16.125C26 15.8266 25.8815 15.5405 25.6705 15.3295C25.4595 15.1185 25.1734 15 24.875 15H24.5V15.75C24.5 15.9489 24.579 16.1397 24.7197 16.2803C24.8603 16.421 25.0511 16.5 25.25 16.5ZM17 31.5V31.875C17 32.496 17.504 33 18.125 33H18.5V32.25C18.5 32.0511 18.421 31.8603 18.2803 31.7197C18.1397 31.579 17.9489 31.5 17.75 31.5H17ZM22.394 25.2045L21.734 24.5445C21.4785 24.2902 21.2788 23.9855 21.1476 23.6498C21.0164 23.314 20.9566 22.9546 20.972 22.5945C20.7718 22.6705 20.5901 22.7885 20.4393 22.9406C20.2884 23.0926 20.1719 23.2752 20.0975 23.4761C20.0232 23.6769 19.9927 23.8914 20.0081 24.105C20.0235 24.3186 20.0845 24.5265 20.187 24.7146C20.2895 24.9026 20.4311 25.0666 20.6022 25.1954C20.7733 25.3242 20.97 25.4148 21.1791 25.4613C21.3882 25.5077 21.6048 25.5088 21.8144 25.4645C22.0239 25.4202 22.2216 25.3316 22.394 25.2045Z" fill="#5856D6"/>
</svg>
