<svg width="48" height="48" viewBox="0 0 48 48" fill="none" xmlns="http://www.w3.org/2000/svg">
<rect width="48" height="48" rx="24" fill="#FFFAF2"/>
<path fill-rule="evenodd" clip-rule="evenodd" d="M13.25 14C13.25 13.8011 13.329 13.6103 13.4697 13.4697C13.6103 13.329 13.8011 13.25 14 13.25H34C34.1989 13.25 34.3897 13.329 34.5303 13.4697C34.671 13.6103 34.75 13.8011 34.75 14C34.75 14.1989 34.671 14.3897 34.5303 14.5303C34.3897 14.671 34.1989 14.75 34 14.75H32.75V24.426C32.75 25.613 32.751 26.439 32.415 27.179C32.078 27.919 31.457 28.463 30.563 29.244L30.445 29.347L28.407 31.129C27.497 31.924 26.762 32.567 26.111 33.005C25.433 33.461 24.77 33.75 24 33.75C23.23 33.75 22.567 33.461 21.889 33.005C21.238 32.567 20.502 31.924 19.593 31.129L17.555 29.347L17.437 29.244C16.543 28.463 15.921 27.92 15.585 27.179C15.249 26.439 15.249 25.613 15.25 24.426V14.75H14C13.8011 14.75 13.6103 14.671 13.4697 14.5303C13.329 14.3897 13.25 14.1989 13.25 14ZM16.75 14.75V24.27C16.75 25.677 16.766 26.15 16.951 26.559C17.136 26.967 17.483 27.291 18.543 28.218L20.543 29.966C21.499 30.802 22.163 31.382 22.727 31.76C23.272 32.127 23.642 32.25 24 32.25C24.357 32.25 24.728 32.128 25.274 31.76C25.837 31.382 26.501 30.802 27.457 29.966L29.457 28.218C30.517 27.291 30.864 26.968 31.049 26.559C31.234 26.151 31.25 25.677 31.25 24.27V14.75H16.75ZM19.75 20C19.75 19.8011 19.829 19.6103 19.9697 19.4697C20.1103 19.329 20.3011 19.25 20.5 19.25H27.5C27.6989 19.25 27.8897 19.329 28.0303 19.4697C28.171 19.6103 28.25 19.8011 28.25 20C28.25 20.1989 28.171 20.3897 28.0303 20.5303C27.8897 20.671 27.6989 20.75 27.5 20.75H20.5C20.3011 20.75 20.1103 20.671 19.9697 20.5303C19.829 20.3897 19.75 20.1989 19.75 20ZM19.75 25C19.75 24.8011 19.829 24.6103 19.9697 24.4697C20.1103 24.329 20.3011 24.25 20.5 24.25H27.5C27.6989 24.25 27.8897 24.329 28.0303 24.4697C28.171 24.6103 28.25 24.8011 28.25 25C28.25 25.1989 28.171 25.3897 28.0303 25.5303C27.8897 25.671 27.6989 25.75 27.5 25.75H20.5C20.3011 25.75 20.1103 25.671 19.9697 25.5303C19.829 25.3897 19.75 25.1989 19.75 25Z" fill="#FF9500"/>
</svg>
