<svg width="49" height="48" viewBox="0 0 49 48" fill="none" xmlns="http://www.w3.org/2000/svg">
<rect x="0.5" width="48" height="48" rx="24" fill="#EEEEFF"/>
<g clip-path="url(#clip0_1413_96342)">
<path d="M24.5 25C25.5609 25 26.5783 24.5786 27.3284 23.8284C28.0786 23.0783 28.5 22.0609 28.5 21C28.5 19.9391 28.0786 18.9217 27.3284 18.1716C26.5783 17.4214 25.5609 17 24.5 17C23.4391 17 22.4217 17.4214 21.6716 18.1716C20.9214 18.9217 20.5 19.9391 20.5 21C20.5 22.0609 20.9214 23.0783 21.6716 23.8284C22.4217 24.5786 23.4391 25 24.5 25ZM24.5 25C22.9087 25 21.3826 25.6321 20.2574 26.7574C19.1321 27.8826 18.5 29.4087 18.5 31V34M24.5 25C26.0913 25 27.6174 25.6321 28.7426 26.7574C29.8679 27.8826 30.5 29.4087 30.5 31V34M25.5 17C25.904 15.336 27.515 14 29.5 14C31.672 14 33.48 15.79 33.5 18C33.48 20.21 31.672 22 29.5 22M29.5 22H28.5M29.5 22C32.788 22 35.5 24.686 35.5 28V30M23.5 17C23.096 15.336 21.485 14 19.5 14C17.328 14 15.52 15.79 15.5 18C15.52 20.21 17.328 22 19.5 22M19.5 22H20.5M19.5 22C16.212 22 13.5 24.686 13.5 28V30" stroke="#5856D6" stroke-width="2"/>
</g>
<defs>
<clipPath id="clip0_1413_96342">
<rect width="24" height="24" fill="white" transform="translate(12.5 12)"/>
</clipPath>
</defs>
</svg>
