<svg width="38" height="43" viewBox="0 0 38 43" fill="none" xmlns="http://www.w3.org/2000/svg">
<g opacity="0.5">
<path d="M3.5354 10.0602C3.78953 8.54792 5.22148 7.52799 6.73374 7.78212C8.50667 8.08005 9.53336 9.95863 8.82671 11.6117L4.68102 21.3099C4.40544 21.9546 3.72425 22.3267 3.03285 22.2103C2.20608 22.0712 1.64859 21.2882 1.78753 20.4614L3.5354 10.0602Z" stroke="#FFB366" stroke-width="2.66665"/>
<path d="M28.9662 4.30882C29.936 2.95668 31.8183 2.64672 33.1704 3.6165C34.6556 4.68171 34.858 6.81326 33.5997 8.13889L17.3234 25.2874C16.8455 25.791 16.0693 25.8644 15.5053 25.4596C14.8822 25.0122 14.7396 24.1446 15.1866 23.5212L28.9662 4.30882Z" stroke="#FFB366" stroke-width="2.66665"/>
<path d="M28.9061 29.0421C30.1445 28.2049 31.8272 28.5301 32.6645 29.7686C33.6645 31.2478 32.9835 33.273 31.2928 33.8474L23.1804 36.6039C22.5161 36.8296 21.7828 36.5829 21.39 36.0016C20.9088 35.2894 21.0959 34.3221 21.8079 33.8407L28.9061 29.0421Z" stroke="#FFB366" stroke-width="2.66665"/>
</g>
</svg>
