<svg width="41" height="40" viewBox="0 0 41 40" fill="none" xmlns="http://www.w3.org/2000/svg">
<g opacity="0.5">
<path d="M6.89609 20.3249L5.89168 17.199C4.89129 14.0855 6.59699 10.7647 9.71043 9.76432L12.8364 8.75991" stroke="white" stroke-width="1.97001" stroke-linecap="round" stroke-linejoin="round"/>
<path d="M20.3389 6.34961L23.4648 5.3452C26.5782 4.3448 29.899 6.05051 30.8994 9.16394L31.9038 12.2899" stroke="white" stroke-width="1.97001" stroke-linecap="round" stroke-linejoin="round"/>
<path d="M34.7161 21.0425L35.3188 22.9181C36.3192 26.0315 34.6135 29.3523 31.5 30.3527L29.6245 30.9554" stroke="white" stroke-width="1.97001" stroke-linecap="round" stroke-linejoin="round"/>
<path d="M20.8716 33.7674L17.7457 34.7718C14.6322 35.7722 11.3114 34.0665 10.3111 30.9531L9.30664 27.8271" stroke="white" stroke-width="1.97001" stroke-linecap="round" stroke-linejoin="round"/>
<path d="M25.8528 14.9239L27.8617 21.1758C28.6652 23.6765 27.8166 25.3287 25.3158 26.1322L20.3143 27.7393C17.8136 28.5428 16.1614 27.6942 15.3579 25.1934L13.3491 18.9416C12.5456 16.4408 13.3942 14.7887 15.8949 13.9851L20.8964 12.3781C23.3972 11.5745 25.0493 12.4232 25.8528 14.9239Z" stroke="white" stroke-width="1.97001" stroke-linecap="round" stroke-linejoin="round"/>
<path d="M29.3578 17.2474L11.8525 22.8721" stroke="white" stroke-width="1.97001" stroke-linecap="round" stroke-linejoin="round"/>
</g>
</svg>
