<svg width="69" height="69" viewBox="0 0 69 69" fill="none" xmlns="http://www.w3.org/2000/svg">
<g opacity="0.5">
<path d="M20.1983 18.4046L22.8958 13.996C25.5825 9.60506 31.2957 8.2293 35.6867 10.916L40.0953 13.6134" stroke="#FFA07A" stroke-width="3.10102" stroke-linecap="round" stroke-linejoin="round"/>
<path d="M50.676 20.0879L55.0846 22.7853C59.4756 25.472 60.8513 31.1853 58.1647 35.5762L55.4672 39.9848" stroke="#FFA07A" stroke-width="3.10102" stroke-linecap="round" stroke-linejoin="round"/>
<path d="M47.9144 52.3294L46.2959 54.9745C43.6092 59.3655 37.896 60.7412 33.505 58.0546L30.8598 56.4361" stroke="#FFA07A" stroke-width="3.10102" stroke-linecap="round" stroke-linejoin="round"/>
<path d="M18.5156 48.8823L14.107 46.1848C9.716 43.4982 8.34024 37.7849 11.0269 33.3939L13.7244 28.9854" stroke="#FFA07A" stroke-width="3.10102" stroke-linecap="round" stroke-linejoin="round"/>
<path d="M46.1106 35.4718L40.7157 44.2889C38.5577 47.8158 35.7153 48.5003 32.1884 46.3423L25.1346 42.0264C21.6078 39.8684 20.9233 37.026 23.0813 33.4991L28.4762 24.6819C30.6342 21.155 33.4766 20.4706 37.0035 22.6286L44.0572 26.9445C47.5841 29.1025 48.2685 31.9449 46.1106 35.4718Z" stroke="#FFA07A" stroke-width="3.10102" stroke-linecap="round" stroke-linejoin="round"/>
<path d="M46.9399 42.0384L22.2517 26.9326" stroke="#FFA07A" stroke-width="3.10102" stroke-linecap="round" stroke-linejoin="round"/>
</g>
</svg>
