<svg width="48" height="48" viewBox="0 0 48 48" fill="none" xmlns="http://www.w3.org/2000/svg">
<rect width="48" height="48" rx="24" fill="#FFEFD6"/>
<g clip-path="url(#clip0_718_87134)">
<path d="M34.0002 21.9996H33.0002L31.0002 15.9996C30.8557 15.6696 30.2987 15.1963 30.0002 14.9996C29.7017 14.8028 29.3562 14.9995 29.0002 14.9996H18.0002C17.6442 14.9995 17.2987 14.8028 17.0002 14.9996C16.7017 15.1963 16.1448 15.6696 16.0002 15.9996L14.0002 21.9996H13.0002C12.7074 21.9996 12.2073 21.7896 12.0002 21.9996C11.7932 22.2095 12.0002 22.7026 12.0002 22.9996C12.0002 23.2965 11.7932 23.7896 12.0002 23.9996C12.2073 24.2095 12.7074 23.9996 13.0002 23.9996V30.9996C13.0002 31.4944 13.6552 31.6496 14.0002 31.9996C14.3453 32.3495 14.5122 32.9996 15.0002 32.9996H18.0002C18.4882 32.9996 18.6552 32.3495 19.0002 31.9996C19.3453 31.6496 20.0002 31.4944 20.0002 30.9996V28.9996H27.0002V30.9996C27.0002 31.4944 27.6552 31.6496 28.0002 31.9996C28.3453 32.3495 28.5122 32.9996 29.0002 32.9996H32.0002C32.4882 32.9996 32.6552 32.3495 33.0002 31.9996C33.3453 31.6496 34.0002 31.4944 34.0002 30.9996V23.9996C34.293 23.9996 34.7932 24.2095 35.0002 23.9996C35.2073 23.7896 35.0002 23.2965 35.0002 22.9996C35.0002 22.7026 35.2073 22.2095 35.0002 21.9996C34.7932 21.7896 34.293 21.9996 34.0002 21.9996ZM18.0002 16.9996H29.0002L31.0002 21.9996H16.0002L18.0002 16.9996ZM18.0002 30.9996H16.0002V28.9996H18.0002V30.9996ZM29.0002 30.9996V28.9996H31.0002V30.9996H29.0002ZM31.0002 26.9996H16.0002V23.9996H31.0002V26.9996Z" fill="#A86500"/>
</g>
<defs>
<clipPath id="clip0_718_87134">
<rect width="24" height="24" fill="white" transform="translate(12 12)"/>
</clipPath>
</defs>
</svg>
