<svg width="48" height="48" viewBox="0 0 48 48" fill="none" xmlns="http://www.w3.org/2000/svg">
<rect width="48" height="48" rx="24" fill="#FFF0F0"/>
<path d="M34.0003 22C34.2995 22 34.7887 22.2143 35.0003 22C35.2119 21.7857 35.0003 21.3031 35.0003 21V18C35.0003 17.4948 34.3529 17.3572 34.0003 17C33.6477 16.6428 33.499 16 33.0003 16H15.0003C14.5016 16 14.3529 16.6428 14.0003 17C13.6477 17.3572 13.0003 17.4948 13.0003 18V21C13.0003 21.3031 12.7887 21.7857 13.0003 22C13.2119 22.2143 13.7011 22 14.0003 22C14.499 22 14.6477 22.6428 15.0003 23C15.3529 23.3572 16.0003 23.4948 16.0003 24C16.0003 24.5052 15.3529 24.6428 15.0003 25C14.6477 25.3572 14.499 26 14.0003 26C13.7011 26 13.2119 25.7857 13.0003 26C12.7887 26.2143 13.0003 26.6969 13.0003 27V30C13.0003 30.5052 13.6477 30.6428 14.0003 31C14.3529 31.3572 14.5016 32 15.0003 32H33.0003C33.499 32 33.6477 31.3572 34.0003 31C34.3529 30.6428 35.0003 30.5052 35.0003 30V27C35.0003 26.6969 35.2119 26.2143 35.0003 26C34.7887 25.7857 34.2995 26 34.0003 26C33.5016 26 33.3529 25.3572 33.0003 25C32.6477 24.6428 32.0003 24.5052 32.0003 24C32.0003 23.4948 32.6477 23.3572 33.0003 23C33.3529 22.6428 33.5016 22 34.0003 22ZM15.0003 28C15.8672 27.7517 16.4568 27.7278 17.0003 27C17.5438 26.2722 18.0003 24.9126 18.0003 24C18.0003 23.0874 17.5438 21.7278 17.0003 21C16.4568 20.2722 15.8672 20.2483 15.0003 20V18H20.0003V30H15.0003V28ZM33.0003 28V30H22.0003V18H33.0003V20C32.1334 20.2483 31.5438 20.2722 31.0003 21C30.4568 21.7278 30.0003 23.0874 30.0003 24C30.0003 24.9126 30.4568 26.2722 31.0003 27C31.5438 27.7278 32.1334 27.7517 33.0003 28Z" fill="#E52929"/>
</svg>
