<svg width="48" height="48" viewBox="0 0 48 48" fill="none" xmlns="http://www.w3.org/2000/svg">
<rect width="48" height="48" rx="24" fill="#F7E0F2"/>
<path d="M30 22H26V18C26 17.4696 25.7893 16.9609 25.4142 16.5858C25.0391 16.2107 24.5304 16 24 16C23.4696 16 22.9609 16.2107 22.5858 16.5858C22.2107 16.9609 22 17.4696 22 18L22.071 22H18C17.4696 22 16.9609 22.2107 16.5858 22.5858C16.2107 22.9609 16 23.4696 16 24C16 24.5304 16.2107 25.0391 16.5858 25.4142C16.9609 25.7893 17.4696 26 18 26L22.071 25.929L22 30C22 30.5304 22.2107 31.0391 22.5858 31.4142C22.9609 31.7893 23.4696 32 24 32C24.5304 32 25.0391 31.7893 25.4142 31.4142C25.7893 31.0391 26 30.5304 26 30V25.929L30 26C30.5304 26 31.0391 25.7893 31.4142 25.4142C31.7893 25.0391 32 24.5304 32 24C32 23.4696 31.7893 22.9609 31.4142 22.5858C31.0391 22.2107 30.5304 22 30 22Z" fill="#CD1EA7"/>
</svg>
