<svg width="48" height="48" viewBox="0 0 48 48" fill="none" xmlns="http://www.w3.org/2000/svg">
<rect width="48" height="48" rx="24" fill="#EBFFF3"/>
<g clip-path="url(#clip0_1029_19712)">
<path d="M15.2724 16C14.3688 16 13.6368 16.7164 13.6368 17.6008V30.4C13.6368 31.2844 14.3688 32.0008 15.2724 32.0008H32.7276C33.6312 32.0008 34.3632 31.2844 34.3632 30.4V17.6008C34.3632 16.7164 33.6312 16 32.7276 16H15.2724ZM32.7276 14.4004C34.5348 14.4004 36 15.8332 36 17.6008V30.4C36 32.1676 34.5348 33.6004 32.7276 33.6004H15.2724C13.4652 33.6004 12 32.1676 12 30.4V17.6008C12 15.8332 13.4652 14.4004 15.2724 14.4004H32.7276ZM21.8004 27.76H16.8C16.6937 27.7587 16.5882 27.7784 16.4895 27.818C16.3908 27.8575 16.3009 27.9162 16.2248 27.9905C16.1488 28.0648 16.0882 28.1534 16.0465 28.2512C16.0047 28.349 15.9827 28.4541 15.9816 28.5604C15.9816 29.002 16.3476 29.3608 16.8 29.3608H21.8004C21.9066 29.3619 22.012 29.3421 22.1106 29.3025C22.2091 29.2628 22.2989 29.2042 22.3748 29.1299C22.4507 29.0555 22.5112 28.967 22.5528 28.8693C22.5945 28.7716 22.6165 28.6666 22.6176 28.5604C22.6165 28.4542 22.5945 28.3492 22.5528 28.2515C22.5112 28.1538 22.4507 28.0653 22.3748 27.9909C22.2989 27.9166 22.2091 27.858 22.1106 27.8183C22.012 27.7787 21.9066 27.7589 21.8004 27.76ZM28.5 18.4C26.6712 18.4 25.182 19.8292 25.182 21.6004C25.182 22.528 25.59 23.362 26.2428 23.9464C25.0068 24.676 24.1824 25.99 24.1824 27.4912C24.1824 27.9196 24.2496 28.3408 24.3804 28.7428C24.5184 29.1628 24.9792 29.3956 25.4088 29.2612C25.5102 29.2308 25.6045 29.1805 25.6863 29.1133C25.768 29.0461 25.8355 28.9633 25.8849 28.8696C25.9343 28.776 25.9645 28.6735 25.9738 28.5681C25.9832 28.4626 25.9714 28.3564 25.9392 28.2556C25.859 28.0087 25.8185 27.7507 25.8192 27.4912C25.8192 26.0812 27.0156 24.9316 28.5 24.9316C29.9844 24.9316 31.182 26.0812 31.182 27.4912C31.182 27.6988 31.1568 27.9016 31.1064 28.0984C31.0811 28.2012 31.0765 28.3081 31.0929 28.4128C31.1092 28.5174 31.1463 28.6177 31.2017 28.708C31.2572 28.7982 31.3301 28.8765 31.4161 28.9383C31.5021 29.0001 31.5996 29.0442 31.7028 29.068C31.9115 29.1203 32.1324 29.0885 32.3179 28.9794C32.5033 28.8703 32.6384 28.6926 32.694 28.4848C32.7768 28.1608 32.8176 27.8284 32.8176 27.4912C32.8176 25.99 31.9932 24.676 30.7572 23.944C31.41 23.362 31.818 22.528 31.818 21.6004C31.818 19.8292 30.33 18.4 28.5 18.4ZM21.8004 23.56H16.8C16.6937 23.5587 16.5882 23.5784 16.4895 23.618C16.3908 23.6575 16.3009 23.7162 16.2248 23.7905C16.1488 23.8648 16.0882 23.9534 16.0465 24.0512C16.0047 24.149 15.9827 24.2541 15.9816 24.3604C15.9816 24.802 16.3476 25.1608 16.8 25.1608H21.8004C21.9066 25.1619 22.012 25.1421 22.1106 25.1025C22.2091 25.0628 22.2989 25.0042 22.3748 24.9299C22.4507 24.8555 22.5112 24.767 22.5528 24.6693C22.5945 24.5716 22.6165 24.4666 22.6176 24.3604C22.6165 24.2542 22.5945 24.1492 22.5528 24.0515C22.5112 23.9538 22.4507 23.8653 22.3748 23.7909C22.2989 23.7166 22.2091 23.658 22.1106 23.6183C22.012 23.5787 21.9066 23.5589 21.8004 23.56ZM28.5 20.0008C29.4324 20.0008 30.1824 20.7208 30.1824 21.6004C30.1824 22.4812 29.4324 23.2 28.5 23.2C27.5676 23.2 26.8176 22.48 26.8176 21.6004C26.8176 20.7196 27.5676 20.0008 28.5 20.0008ZM21.8004 19.36H16.8C16.6937 19.3587 16.5882 19.3784 16.4895 19.418C16.3908 19.4575 16.3009 19.5162 16.2248 19.5905C16.1488 19.6648 16.0882 19.7534 16.0465 19.8512C16.0047 19.949 15.9827 20.0541 15.9816 20.1604C15.9816 20.602 16.3476 20.9608 16.8 20.9608H21.8004C21.9066 20.9619 22.012 20.9421 22.1106 20.9025C22.2091 20.8628 22.2989 20.8042 22.3748 20.7299C22.4507 20.6555 22.5112 20.567 22.5528 20.4693C22.5945 20.3716 22.6165 20.2666 22.6176 20.1604C22.6165 20.0542 22.5945 19.9492 22.5528 19.8515C22.5112 19.7538 22.4507 19.6653 22.3748 19.5909C22.2989 19.5166 22.2091 19.458 22.1106 19.4183C22.012 19.3787 21.9066 19.3589 21.8004 19.36Z" fill="#0FA958"/>
</g>
<defs>
<clipPath id="clip0_1029_19712">
<rect width="24" height="24" fill="white" transform="translate(12 12)"/>
</clipPath>
</defs>
</svg>
