<svg width="48" height="48" viewBox="0 0 48 48" fill="none" xmlns="http://www.w3.org/2000/svg">
<rect width="48" height="48" rx="24" fill="#FEE9FD"/>
<g clip-path="url(#clip0_1029_19738)">
<path d="M22 16C20.9391 16 19.9217 16.4214 19.1716 17.1716C18.4214 17.9217 18 18.9391 18 20C18 21.0609 18.4214 22.0783 19.1716 22.8284C19.9217 23.5786 20.9391 24 22 24C23.0609 24 24.0783 23.5786 24.8284 22.8284C25.5786 22.0783 26 21.0609 26 20C26 18.9391 25.5786 17.9217 24.8284 17.1716C24.0783 16.4214 23.0609 16 22 16ZM22 18C22.5304 18 23.0391 18.2107 23.4142 18.5858C23.7893 18.9609 24 19.4696 24 20C24 20.5304 23.7893 21.0391 23.4142 21.4142C23.0391 21.7893 22.5304 22 22 22C21.4696 22 20.9609 21.7893 20.5858 21.4142C20.2107 21.0391 20 20.5304 20 20C20 19.4696 20.2107 18.9609 20.5858 18.5858C20.9609 18.2107 21.4696 18 22 18ZM22 25C19.33 25 14 26.33 14 29V32H23.5C23.2483 31.394 23.0899 30.7534 23.03 30.1H15.9V29C15.9 28.36 19.03 26.9 22 26.9C22.5 26.9 23 26.95 23.5 27.03C23.7566 26.3985 24.1109 25.8114 24.55 25.29C23.61 25.1 22.71 25 22 25ZM29.5 25C27 25 25 27 25 29.5C25 32 27 34 29.5 34C32 34 34 32 34 29.5C34 27 32 25 29.5 25ZM29.5 26.5C31.16 26.5 32.5 27.84 32.5 29.5C32.5 30.06 32.35 30.58 32.08 31L28 26.92C28.42 26.65 28.94 26.5 29.5 26.5ZM26.92 28L31 32.08C30.58 32.35 30.06 32.5 29.5 32.5C27.84 32.5 26.5 31.16 26.5 29.5C26.5 28.94 26.65 28.42 26.92 28Z" fill="#A90F7E"/>
</g>
<defs>
<clipPath id="clip0_1029_19738">
<rect width="24" height="24" fill="white" transform="translate(12 12)"/>
</clipPath>
</defs>
</svg>
