<svg width="16" height="16" viewBox="0 0 16 16" fill="none" xmlns="http://www.w3.org/2000/svg">
<g clip-path="url(#clip0_1058_34751)">
<path d="M4.467 0.22C4.60752 0.0793075 4.79815 0.000175052 4.997 0L11.003 0C11.202 0 11.392 0.079 11.533 0.22L15.78 4.467C15.921 4.607 16 4.798 16 4.997V11.003C15.9998 11.2018 15.9207 11.3925 15.78 11.533L11.533 15.78C11.3925 15.9207 11.2018 15.9998 11.003 16H4.997C4.79815 15.9998 4.60752 15.9207 4.467 15.78L0.22 11.533C0.0793075 11.3925 0.000175052 11.2018 0 11.003L0 4.997C0 4.798 0.079 4.608 0.22 4.467L4.467 0.22ZM5.307 1.5L1.5 5.308V10.692L5.308 14.5H10.692L14.5 10.692V5.308L10.692 1.5H5.307ZM4 7.75C4 7.55109 4.07902 7.36032 4.21967 7.21967C4.36032 7.07902 4.55109 7 4.75 7H11.25C11.4489 7 11.6397 7.07902 11.7803 7.21967C11.921 7.36032 12 7.55109 12 7.75C12 7.94891 11.921 8.13968 11.7803 8.28033C11.6397 8.42098 11.4489 8.5 11.25 8.5H4.75C4.55109 8.5 4.36032 8.42098 4.21967 8.28033C4.07902 8.13968 4 7.94891 4 7.75Z" fill="#828282"/>
</g>
<defs>
<clipPath id="clip0_1058_34751">
<rect width="16" height="16" fill="white"/>
</clipPath>
</defs>
</svg>
