<svg width="48" height="49" viewBox="0 0 48 49" fill="none" xmlns="http://www.w3.org/2000/svg">
<rect y="0.614014" width="48" height="48" rx="24" fill="#EBF3FF"/>
<path d="M29.5033 17.1121L16.4993 30.1171C16.2346 30.3818 16.0859 30.7407 16.0859 31.1151C16.0859 31.4894 16.2346 31.8484 16.4993 32.1131C16.764 32.3778 17.123 32.5265 17.4973 32.5265C17.8716 32.5265 18.2306 32.3778 18.4953 32.1131L31.4993 19.1091C31.7558 18.8427 31.8975 18.4863 31.894 18.1165C31.8906 17.7468 31.7422 17.3931 31.4808 17.1316C31.2194 16.87 30.8658 16.7215 30.496 16.7178C30.1263 16.7142 29.7698 16.8557 29.5033 17.1121ZM19.0023 17.6141C18.7397 17.6138 18.4796 17.6653 18.2368 17.7655C17.9941 17.8658 17.7734 18.0129 17.5875 18.1984C17.4016 18.384 17.2541 18.6043 17.1533 18.8469C17.0526 19.0894 17.0006 19.3494 17.0003 19.6121C17.0001 19.8747 17.0515 20.1348 17.1518 20.3776C17.2521 20.6203 17.3992 20.841 17.5847 21.0269C17.7702 21.2128 17.9906 21.3603 18.2331 21.4611C18.4757 21.5618 18.7357 21.6138 18.9983 21.6141C19.5288 21.6146 20.0377 21.4044 20.4131 21.0297C20.7886 20.655 20.9998 20.1465 21.0003 19.6161C21.0009 19.0856 20.7906 18.5767 20.416 18.2013C20.0413 17.8258 19.5328 17.6146 19.0023 17.6141ZM29.0023 27.6141C28.4719 27.6135 27.963 27.8237 27.5875 28.1984C27.2121 28.5731 27.0009 29.0816 27.0003 29.6121C26.9998 30.1425 27.21 30.6514 27.5847 31.0269C27.9594 31.4023 28.4679 31.6135 28.9983 31.6141C29.261 31.6143 29.5211 31.5629 29.7638 31.4626C30.0066 31.3623 30.2272 31.2152 30.4131 31.0297C30.599 30.8442 30.7466 30.6238 30.8473 30.3813C30.9481 30.1387 31.0001 29.8787 31.0003 29.6161C31.0006 29.3534 30.9491 29.0933 30.8488 28.8506C30.7486 28.6078 30.6015 28.3872 30.416 28.2013C30.2304 28.0154 30.0101 27.8678 29.7675 27.7671C29.525 27.6663 29.265 27.6143 29.0023 27.6141Z" fill="#1367D8"/>
</svg>
