<svg width="24" height="24" viewBox="0 0 24 24" fill="none" xmlns="http://www.w3.org/2000/svg">
<rect width="24" height="24" rx="12" fill="black" fill-opacity="0.05"/>
<path d="M8.66732 15.3333C8.11176 15.3333 7.63954 15.1389 7.25065 14.75C6.86176 14.3611 6.66732 13.8889 6.66732 13.3333H6.00065C5.81176 13.3333 5.65343 13.2694 5.52565 13.1417C5.39787 13.0139 5.33398 12.8556 5.33398 12.6667V11.3333C5.33398 10.6 5.5951 9.97222 6.11732 9.45C6.63954 8.92778 7.26732 8.66667 8.00065 8.66667H10.0007C10.1895 8.66667 10.3479 8.73056 10.4757 8.85833C10.6034 8.98611 10.6673 9.14444 10.6673 9.33333V12H13.0007L15.334 9.1V7.33333H14.0007C13.8118 7.33333 13.6534 7.26944 13.5257 7.14167C13.3979 7.01389 13.334 6.85556 13.334 6.66667C13.334 6.47778 13.3979 6.31944 13.5257 6.19167C13.6534 6.06389 13.8118 6 14.0007 6H15.334C15.7007 6 16.0145 6.13056 16.2757 6.39167C16.5368 6.65278 16.6673 6.96667 16.6673 7.33333V9.1C16.6673 9.25556 16.6423 9.40278 16.5923 9.54167C16.5423 9.68056 16.4729 9.81111 16.384 9.93333L14.0673 12.8333C13.9451 12.9889 13.7895 13.1111 13.6007 13.2C13.4118 13.2889 13.2173 13.3333 13.0173 13.3333H10.6673C10.6673 13.8889 10.4729 14.3611 10.084 14.75C9.6951 15.1389 9.22287 15.3333 8.66732 15.3333ZM8.66732 14C8.85621 14 9.01454 13.9361 9.14232 13.8083C9.2701 13.6806 9.33398 13.5222 9.33398 13.3333H8.00065C8.00065 13.5222 8.06454 13.6806 8.19232 13.8083C8.3201 13.9361 8.47843 14 8.66732 14ZM8.00065 8C7.81176 8 7.65343 7.93611 7.52565 7.80833C7.39787 7.68056 7.33398 7.52222 7.33398 7.33333C7.33398 7.14444 7.39787 6.98611 7.52565 6.85833C7.65343 6.73056 7.81176 6.66667 8.00065 6.66667H10.0007C10.1895 6.66667 10.3479 6.73056 10.4757 6.85833C10.6034 6.98611 10.6673 7.14444 10.6673 7.33333C10.6673 7.52222 10.6034 7.68056 10.4757 7.80833C10.3479 7.93611 10.1895 8 10.0007 8H8.00065ZM16.6673 15.3333C16.1118 15.3333 15.6395 15.1389 15.2507 14.75C14.8618 14.3611 14.6673 13.8889 14.6673 13.3333C14.6673 12.7778 14.8618 12.3056 15.2507 11.9167C15.6395 11.5278 16.1118 11.3333 16.6673 11.3333C17.2229 11.3333 17.6951 11.5278 18.084 11.9167C18.4729 12.3056 18.6673 12.7778 18.6673 13.3333C18.6673 13.8889 18.4729 14.3611 18.084 14.75C17.6951 15.1389 17.2229 15.3333 16.6673 15.3333ZM16.6673 14C16.8562 14 17.0145 13.9361 17.1423 13.8083C17.2701 13.6806 17.334 13.5222 17.334 13.3333C17.334 13.1444 17.2701 12.9861 17.1423 12.8583C17.0145 12.7306 16.8562 12.6667 16.6673 12.6667C16.4784 12.6667 16.3201 12.7306 16.1923 12.8583C16.0645 12.9861 16.0007 13.1444 16.0007 13.3333C16.0007 13.5222 16.0645 13.6806 16.1923 13.8083C16.3201 13.9361 16.4784 14 16.6673 14ZM12.6673 19.3333L8.66732 17.3333H11.334V16L15.334 18H12.6673V19.3333ZM6.66732 12H9.33398V10H8.00065C7.63398 10 7.3201 10.1306 7.05898 10.3917C6.79787 10.6528 6.66732 10.9667 6.66732 11.3333V12Z" fill="#828282"/>
</svg>
