<svg width="16" height="16" viewBox="0 0 16 16" fill="none" xmlns="http://www.w3.org/2000/svg">
<g clip-path="url(#clip0_1121_52921)">
<path d="M7.33398 2.66699V6.66699C7.33398 7.40366 5.99065 8.00033 4.33398 8.00033C2.67732 8.00033 1.33398 7.40366 1.33398 6.66699V2.66699" stroke="#F78105" stroke-width="2" stroke-linecap="round" stroke-linejoin="round"/>
<path d="M7.33398 4.66683C7.33398 5.4035 5.99065 6.00016 4.33398 6.00016C2.67732 6.00016 1.33398 5.4035 1.33398 4.66683M10.6673 2.00016H12.6673C13.0209 2.00016 13.3601 2.14064 13.6101 2.39069C13.8602 2.64074 14.0007 2.97987 14.0007 3.3335V5.3335M5.33398 14.0002H3.33398C2.98036 14.0002 2.64122 13.8597 2.39118 13.6096C2.14113 13.3596 2.00065 13.0205 2.00065 12.6668V10.6668M7.33398 2.66683C7.33398 3.4035 5.99065 4.00016 4.33398 4.00016C2.67732 4.00016 1.33398 3.4035 1.33398 2.66683C1.33398 1.93016 2.67732 1.3335 4.33398 1.3335C5.99065 1.3335 7.33398 1.93016 7.33398 2.66683Z" stroke="#F78105" stroke-width="2" stroke-linecap="round" stroke-linejoin="round"/>
<path d="M11.6667 11.3333C12.5871 11.3333 13.3333 10.5871 13.3333 9.66667C13.3333 8.74619 12.5871 8 11.6667 8C10.7462 8 10 8.74619 10 9.66667C10 10.5871 10.7462 11.3333 11.6667 11.3333Z" stroke="#F78105" stroke-width="2" stroke-linecap="round" stroke-linejoin="round"/>
<path d="M14.668 14.667H8.66797C8.66797 14.273 8.74557 13.8829 8.89633 13.5189C9.04709 13.155 9.26807 12.8242 9.54665 12.5457C9.82522 12.2671 10.1559 12.0461 10.5199 11.8954C10.8839 11.7446 11.274 11.667 11.668 11.667C12.0619 11.667 12.452 11.7446 12.816 11.8954C13.18 12.0461 13.5107 12.2671 13.7893 12.5457C14.0679 12.8242 14.2888 13.155 14.4396 13.5189C14.5904 13.8829 14.668 14.273 14.668 14.667Z" stroke="#F78105" stroke-width="2" stroke-linecap="round" stroke-linejoin="round"/>
</g>
<defs>
<clipPath id="clip0_1121_52921">
<rect width="16" height="16" fill="white"/>
</clipPath>
</defs>
</svg>
